<svg width="15" height="17" viewBox="0 0 15 17" fill="none" xmlns="http://www.w3.org/2000/svg">
<path d="M14.8064 14.5367C14.8064 15.011 14.6455 15.4169 14.3236 15.7544C14.0017 16.0919 13.6143 16.2609 13.1613 16.2615H1.64516C1.19274 16.2615 0.805581 16.0924 0.483677 15.7544C0.161774 15.4163 0.000548387 15.0104 0 14.5367L0 2.4634C0 1.98909 0.161226 1.58291 0.483677 1.24486C0.806129 0.906803 1.19329 0.738065 1.64516 0.73864H13.1613C13.6137 0.73864 14.0011 0.907378 14.3236 1.24486C14.646 1.58233 14.807 1.98851 14.8064 2.4634V14.5367ZM13.1613 10.2248H8.22581V14.5367H13.1613V10.2248ZM13.1613 8.50006V2.4634H8.22581V8.50006H13.1613ZM6.58064 14.5367L6.58064 2.4634H1.64516L1.64516 14.5367H6.58064Z" fill="#606060"/>
</svg>
